<mxfile host="app.diagrams.net" modified="2023-10-10T20:09:33.013Z" agent="Mozilla/5.0 (Windows NT 10.0; Win64; x64; rv:109.0) Gecko/20100101 Firefox/118.0" etag="uVBFmc0KFHImS0dIbLwm" version="22.0.4" type="github">
  <diagram name="Page-1" id="aOSN55xCkMGLrLH2ECnk">
    <mxGraphModel dx="2954" dy="1106" grid="1" gridSize="10" guides="1" tooltips="1" connect="1" arrows="1" fold="1" page="1" pageScale="1" pageWidth="850" pageHeight="1100" math="0" shadow="0">
      <root>
        <mxCell id="0" />
        <mxCell id="1" parent="0" />
        <mxCell id="h2_gwtz-zKjeCzeix2mw-1" value="&lt;div&gt;Start&lt;/div&gt;" style="rounded=1;whiteSpace=wrap;html=1;" vertex="1" parent="1">
          <mxGeometry x="340" y="60" width="120" height="60" as="geometry" />
        </mxCell>
        <mxCell id="h2_gwtz-zKjeCzeix2mw-9" style="edgeStyle=orthogonalEdgeStyle;rounded=0;orthogonalLoop=1;jettySize=auto;html=1;exitX=0.5;exitY=1;exitDx=0;exitDy=0;entryX=0.5;entryY=0;entryDx=0;entryDy=0;" edge="1" parent="1" source="h2_gwtz-zKjeCzeix2mw-2" target="h2_gwtz-zKjeCzeix2mw-6">
          <mxGeometry relative="1" as="geometry" />
        </mxCell>
        <mxCell id="h2_gwtz-zKjeCzeix2mw-2" value="Choose and store secret word" style="rounded=0;whiteSpace=wrap;html=1;" vertex="1" parent="1">
          <mxGeometry x="340" y="160" width="120" height="60" as="geometry" />
        </mxCell>
        <mxCell id="h2_gwtz-zKjeCzeix2mw-4" value="Ask user for a letter" style="rhombus;whiteSpace=wrap;html=1;" vertex="1" parent="1">
          <mxGeometry x="340" y="430" width="120" height="80" as="geometry" />
        </mxCell>
        <mxCell id="h2_gwtz-zKjeCzeix2mw-15" style="edgeStyle=orthogonalEdgeStyle;rounded=0;orthogonalLoop=1;jettySize=auto;html=1;exitX=0.5;exitY=1;exitDx=0;exitDy=0;entryX=0.5;entryY=0;entryDx=0;entryDy=0;" edge="1" parent="1" source="h2_gwtz-zKjeCzeix2mw-5" target="h2_gwtz-zKjeCzeix2mw-4">
          <mxGeometry relative="1" as="geometry" />
        </mxCell>
        <mxCell id="h2_gwtz-zKjeCzeix2mw-5" value="print _ for each letter in secret word" style="rounded=0;whiteSpace=wrap;html=1;" vertex="1" parent="1">
          <mxGeometry x="340" y="330" width="120" height="60" as="geometry" />
        </mxCell>
        <mxCell id="h2_gwtz-zKjeCzeix2mw-10" style="edgeStyle=orthogonalEdgeStyle;rounded=0;orthogonalLoop=1;jettySize=auto;html=1;exitX=0.5;exitY=1;exitDx=0;exitDy=0;" edge="1" parent="1" source="h2_gwtz-zKjeCzeix2mw-6" target="h2_gwtz-zKjeCzeix2mw-5">
          <mxGeometry relative="1" as="geometry" />
        </mxCell>
        <mxCell id="h2_gwtz-zKjeCzeix2mw-6" value="Print welcome message" style="rounded=0;whiteSpace=wrap;html=1;" vertex="1" parent="1">
          <mxGeometry x="340" y="240" width="120" height="60" as="geometry" />
        </mxCell>
        <mxCell id="h2_gwtz-zKjeCzeix2mw-7" value="" style="endArrow=classic;html=1;rounded=0;exitX=1;exitY=0.5;exitDx=0;exitDy=0;" edge="1" parent="1" source="h2_gwtz-zKjeCzeix2mw-16">
          <mxGeometry width="50" height="50" relative="1" as="geometry">
            <mxPoint x="560" y="590" as="sourcePoint" />
            <mxPoint x="590" y="470" as="targetPoint" />
          </mxGeometry>
        </mxCell>
        <mxCell id="h2_gwtz-zKjeCzeix2mw-8" style="edgeStyle=orthogonalEdgeStyle;rounded=0;orthogonalLoop=1;jettySize=auto;html=1;exitX=0.5;exitY=1;exitDx=0;exitDy=0;entryX=0.5;entryY=0.117;entryDx=0;entryDy=0;entryPerimeter=0;" edge="1" parent="1" source="h2_gwtz-zKjeCzeix2mw-1" target="h2_gwtz-zKjeCzeix2mw-2">
          <mxGeometry relative="1" as="geometry" />
        </mxCell>
        <mxCell id="h2_gwtz-zKjeCzeix2mw-29" style="edgeStyle=orthogonalEdgeStyle;rounded=0;orthogonalLoop=1;jettySize=auto;html=1;exitX=0.5;exitY=1;exitDx=0;exitDy=0;entryX=0.5;entryY=0;entryDx=0;entryDy=0;" edge="1" parent="1" source="h2_gwtz-zKjeCzeix2mw-13" target="h2_gwtz-zKjeCzeix2mw-25">
          <mxGeometry relative="1" as="geometry" />
        </mxCell>
        <mxCell id="h2_gwtz-zKjeCzeix2mw-13" value="print correct guess" style="rounded=0;whiteSpace=wrap;html=1;" vertex="1" parent="1">
          <mxGeometry x="100" y="440" width="120" height="60" as="geometry" />
        </mxCell>
        <mxCell id="h2_gwtz-zKjeCzeix2mw-14" value="" style="endArrow=classic;html=1;rounded=0;exitX=0;exitY=0.5;exitDx=0;exitDy=0;entryX=1;entryY=0.5;entryDx=0;entryDy=0;" edge="1" parent="1" source="h2_gwtz-zKjeCzeix2mw-4" target="h2_gwtz-zKjeCzeix2mw-18">
          <mxGeometry width="50" height="50" relative="1" as="geometry">
            <mxPoint x="400" y="700" as="sourcePoint" />
            <mxPoint x="450" y="650" as="targetPoint" />
          </mxGeometry>
        </mxCell>
        <mxCell id="h2_gwtz-zKjeCzeix2mw-17" value="" style="endArrow=classic;html=1;rounded=0;exitX=1;exitY=0.5;exitDx=0;exitDy=0;" edge="1" parent="1" source="h2_gwtz-zKjeCzeix2mw-4" target="h2_gwtz-zKjeCzeix2mw-16">
          <mxGeometry width="50" height="50" relative="1" as="geometry">
            <mxPoint x="460" y="470" as="sourcePoint" />
            <mxPoint x="590" y="470" as="targetPoint" />
          </mxGeometry>
        </mxCell>
        <mxCell id="h2_gwtz-zKjeCzeix2mw-16" value="Wrong" style="text;html=1;strokeColor=none;fillColor=none;align=center;verticalAlign=middle;whiteSpace=wrap;rounded=0;" vertex="1" parent="1">
          <mxGeometry x="490" y="455" width="60" height="30" as="geometry" />
        </mxCell>
        <mxCell id="h2_gwtz-zKjeCzeix2mw-18" value="Right" style="text;html=1;strokeColor=none;fillColor=none;align=center;verticalAlign=middle;whiteSpace=wrap;rounded=0;" vertex="1" parent="1">
          <mxGeometry x="240" y="455" width="60" height="30" as="geometry" />
        </mxCell>
        <mxCell id="h2_gwtz-zKjeCzeix2mw-19" value="print incorrect guess " style="rounded=0;whiteSpace=wrap;html=1;" vertex="1" parent="1">
          <mxGeometry x="600" y="450" width="120" height="60" as="geometry" />
        </mxCell>
        <mxCell id="h2_gwtz-zKjeCzeix2mw-22" value="" style="endArrow=classic;html=1;rounded=0;entryX=1;entryY=0.5;entryDx=0;entryDy=0;exitX=0;exitY=0.5;exitDx=0;exitDy=0;" edge="1" parent="1" source="h2_gwtz-zKjeCzeix2mw-18" target="h2_gwtz-zKjeCzeix2mw-13">
          <mxGeometry width="50" height="50" relative="1" as="geometry">
            <mxPoint x="560" y="590" as="sourcePoint" />
            <mxPoint x="610" y="540" as="targetPoint" />
          </mxGeometry>
        </mxCell>
        <mxCell id="h2_gwtz-zKjeCzeix2mw-27" style="edgeStyle=orthogonalEdgeStyle;rounded=0;orthogonalLoop=1;jettySize=auto;html=1;exitX=0.5;exitY=1;exitDx=0;exitDy=0;entryX=0.5;entryY=0;entryDx=0;entryDy=0;" edge="1" parent="1" source="h2_gwtz-zKjeCzeix2mw-23" target="h2_gwtz-zKjeCzeix2mw-24">
          <mxGeometry relative="1" as="geometry" />
        </mxCell>
        <mxCell id="h2_gwtz-zKjeCzeix2mw-23" value="Life - 1" style="rounded=0;whiteSpace=wrap;html=1;" vertex="1" parent="1">
          <mxGeometry x="600" y="530" width="120" height="60" as="geometry" />
        </mxCell>
        <mxCell id="h2_gwtz-zKjeCzeix2mw-28" style="edgeStyle=orthogonalEdgeStyle;rounded=0;orthogonalLoop=1;jettySize=auto;html=1;exitX=0.5;exitY=1;exitDx=0;exitDy=0;entryX=0.5;entryY=0;entryDx=0;entryDy=0;" edge="1" parent="1" source="h2_gwtz-zKjeCzeix2mw-24" target="h2_gwtz-zKjeCzeix2mw-26">
          <mxGeometry relative="1" as="geometry" />
        </mxCell>
        <mxCell id="h2_gwtz-zKjeCzeix2mw-24" value="update ascii" style="rounded=0;whiteSpace=wrap;html=1;" vertex="1" parent="1">
          <mxGeometry x="600" y="610" width="120" height="60" as="geometry" />
        </mxCell>
        <mxCell id="h2_gwtz-zKjeCzeix2mw-55" style="edgeStyle=orthogonalEdgeStyle;rounded=0;orthogonalLoop=1;jettySize=auto;html=1;exitX=0.5;exitY=1;exitDx=0;exitDy=0;entryX=0.5;entryY=0;entryDx=0;entryDy=0;" edge="1" parent="1" source="h2_gwtz-zKjeCzeix2mw-25" target="h2_gwtz-zKjeCzeix2mw-31">
          <mxGeometry relative="1" as="geometry" />
        </mxCell>
        <mxCell id="h2_gwtz-zKjeCzeix2mw-25" value="update letters _" style="rounded=0;whiteSpace=wrap;html=1;" vertex="1" parent="1">
          <mxGeometry x="100" y="530" width="120" height="60" as="geometry" />
        </mxCell>
        <mxCell id="h2_gwtz-zKjeCzeix2mw-41" style="edgeStyle=orthogonalEdgeStyle;rounded=0;orthogonalLoop=1;jettySize=auto;html=1;exitX=0;exitY=0.5;exitDx=0;exitDy=0;entryX=1;entryY=0.5;entryDx=0;entryDy=0;" edge="1" parent="1" source="h2_gwtz-zKjeCzeix2mw-44" target="h2_gwtz-zKjeCzeix2mw-37">
          <mxGeometry relative="1" as="geometry" />
        </mxCell>
        <mxCell id="h2_gwtz-zKjeCzeix2mw-47" style="edgeStyle=orthogonalEdgeStyle;rounded=0;orthogonalLoop=1;jettySize=auto;html=1;exitX=0.5;exitY=1;exitDx=0;exitDy=0;entryX=0.5;entryY=0;entryDx=0;entryDy=0;" edge="1" parent="1" source="h2_gwtz-zKjeCzeix2mw-26" target="h2_gwtz-zKjeCzeix2mw-46">
          <mxGeometry relative="1" as="geometry" />
        </mxCell>
        <mxCell id="h2_gwtz-zKjeCzeix2mw-50" style="edgeStyle=orthogonalEdgeStyle;rounded=0;orthogonalLoop=1;jettySize=auto;html=1;exitX=0.5;exitY=1;exitDx=0;exitDy=0;entryX=0.5;entryY=0;entryDx=0;entryDy=0;" edge="1" parent="1" source="h2_gwtz-zKjeCzeix2mw-26" target="h2_gwtz-zKjeCzeix2mw-46">
          <mxGeometry relative="1" as="geometry" />
        </mxCell>
        <mxCell id="h2_gwtz-zKjeCzeix2mw-26" value="Lives = 0?" style="rhombus;whiteSpace=wrap;html=1;" vertex="1" parent="1">
          <mxGeometry x="600" y="700" width="120" height="80" as="geometry" />
        </mxCell>
        <mxCell id="h2_gwtz-zKjeCzeix2mw-39" style="edgeStyle=orthogonalEdgeStyle;rounded=0;orthogonalLoop=1;jettySize=auto;html=1;exitX=1;exitY=0.5;exitDx=0;exitDy=0;entryX=0;entryY=0.5;entryDx=0;entryDy=0;" edge="1" parent="1" source="h2_gwtz-zKjeCzeix2mw-42" target="h2_gwtz-zKjeCzeix2mw-37">
          <mxGeometry relative="1" as="geometry" />
        </mxCell>
        <mxCell id="h2_gwtz-zKjeCzeix2mw-53" style="edgeStyle=orthogonalEdgeStyle;rounded=0;orthogonalLoop=1;jettySize=auto;html=1;exitX=0.5;exitY=1;exitDx=0;exitDy=0;entryX=0.5;entryY=0;entryDx=0;entryDy=0;" edge="1" parent="1" source="h2_gwtz-zKjeCzeix2mw-31" target="h2_gwtz-zKjeCzeix2mw-51">
          <mxGeometry relative="1" as="geometry" />
        </mxCell>
        <mxCell id="h2_gwtz-zKjeCzeix2mw-31" value="Word complete?" style="rhombus;whiteSpace=wrap;html=1;" vertex="1" parent="1">
          <mxGeometry x="100" y="630" width="120" height="80" as="geometry" />
        </mxCell>
        <mxCell id="h2_gwtz-zKjeCzeix2mw-33" value="You Win!" style="rounded=0;whiteSpace=wrap;html=1;" vertex="1" parent="1">
          <mxGeometry x="100" y="780" width="120" height="60" as="geometry" />
        </mxCell>
        <mxCell id="h2_gwtz-zKjeCzeix2mw-34" value="You Win!" style="rounded=0;whiteSpace=wrap;html=1;" vertex="1" parent="1">
          <mxGeometry x="600" y="900" width="120" height="60" as="geometry" />
        </mxCell>
        <mxCell id="h2_gwtz-zKjeCzeix2mw-40" style="edgeStyle=orthogonalEdgeStyle;rounded=0;orthogonalLoop=1;jettySize=auto;html=1;exitX=0.5;exitY=0;exitDx=0;exitDy=0;entryX=0.5;entryY=1;entryDx=0;entryDy=0;" edge="1" parent="1" source="h2_gwtz-zKjeCzeix2mw-37" target="h2_gwtz-zKjeCzeix2mw-4">
          <mxGeometry relative="1" as="geometry" />
        </mxCell>
        <mxCell id="h2_gwtz-zKjeCzeix2mw-37" value="Guess again" style="rounded=0;whiteSpace=wrap;html=1;" vertex="1" parent="1">
          <mxGeometry x="340" y="640" width="120" height="60" as="geometry" />
        </mxCell>
        <mxCell id="h2_gwtz-zKjeCzeix2mw-43" value="" style="edgeStyle=orthogonalEdgeStyle;rounded=0;orthogonalLoop=1;jettySize=auto;html=1;exitX=1;exitY=0.5;exitDx=0;exitDy=0;entryX=0;entryY=0.5;entryDx=0;entryDy=0;" edge="1" parent="1" source="h2_gwtz-zKjeCzeix2mw-31" target="h2_gwtz-zKjeCzeix2mw-42">
          <mxGeometry relative="1" as="geometry">
            <mxPoint x="220" y="670" as="sourcePoint" />
            <mxPoint x="340" y="670" as="targetPoint" />
          </mxGeometry>
        </mxCell>
        <mxCell id="h2_gwtz-zKjeCzeix2mw-42" value="No" style="text;html=1;strokeColor=none;fillColor=none;align=center;verticalAlign=middle;whiteSpace=wrap;rounded=0;" vertex="1" parent="1">
          <mxGeometry x="250" y="655" width="60" height="30" as="geometry" />
        </mxCell>
        <mxCell id="h2_gwtz-zKjeCzeix2mw-45" value="" style="edgeStyle=orthogonalEdgeStyle;rounded=0;orthogonalLoop=1;jettySize=auto;html=1;exitX=0;exitY=0.5;exitDx=0;exitDy=0;entryX=1;entryY=0.5;entryDx=0;entryDy=0;" edge="1" parent="1" source="h2_gwtz-zKjeCzeix2mw-26" target="h2_gwtz-zKjeCzeix2mw-44">
          <mxGeometry relative="1" as="geometry">
            <mxPoint x="600" y="740" as="sourcePoint" />
            <mxPoint x="460" y="670" as="targetPoint" />
          </mxGeometry>
        </mxCell>
        <mxCell id="h2_gwtz-zKjeCzeix2mw-44" value="No" style="text;html=1;strokeColor=none;fillColor=none;align=center;verticalAlign=middle;whiteSpace=wrap;rounded=0;" vertex="1" parent="1">
          <mxGeometry x="500" y="700" width="60" height="30" as="geometry" />
        </mxCell>
        <mxCell id="h2_gwtz-zKjeCzeix2mw-48" style="edgeStyle=orthogonalEdgeStyle;rounded=0;orthogonalLoop=1;jettySize=auto;html=1;exitX=0.5;exitY=1;exitDx=0;exitDy=0;entryX=0.5;entryY=0;entryDx=0;entryDy=0;" edge="1" parent="1" source="h2_gwtz-zKjeCzeix2mw-46" target="h2_gwtz-zKjeCzeix2mw-34">
          <mxGeometry relative="1" as="geometry" />
        </mxCell>
        <mxCell id="h2_gwtz-zKjeCzeix2mw-46" value="&lt;div&gt;Yes&lt;/div&gt;" style="text;html=1;strokeColor=none;fillColor=none;align=center;verticalAlign=middle;whiteSpace=wrap;rounded=0;" vertex="1" parent="1">
          <mxGeometry x="630" y="820" width="60" height="30" as="geometry" />
        </mxCell>
        <mxCell id="h2_gwtz-zKjeCzeix2mw-54" style="edgeStyle=orthogonalEdgeStyle;rounded=0;orthogonalLoop=1;jettySize=auto;html=1;exitX=0.5;exitY=1;exitDx=0;exitDy=0;entryX=0.5;entryY=0;entryDx=0;entryDy=0;" edge="1" parent="1" source="h2_gwtz-zKjeCzeix2mw-51" target="h2_gwtz-zKjeCzeix2mw-33">
          <mxGeometry relative="1" as="geometry" />
        </mxCell>
        <mxCell id="h2_gwtz-zKjeCzeix2mw-51" value="&lt;div&gt;Yes&lt;/div&gt;" style="text;html=1;strokeColor=none;fillColor=none;align=center;verticalAlign=middle;whiteSpace=wrap;rounded=0;" vertex="1" parent="1">
          <mxGeometry x="130" y="725" width="60" height="30" as="geometry" />
        </mxCell>
      </root>
    </mxGraphModel>
  </diagram>
</mxfile>
